<mxfile host="app.diagrams.net" modified="2022-02-22T19:31:12.889Z" agent="5.0 (Windows NT 10.0; Win64; x64) AppleWebKit/537.36 (KHTML, like Gecko) Chrome/98.0.4758.80 Safari/537.36 Edg/98.0.1108.50" etag="2qL9ZOOnq01w9UkEMqu8" version="16.6.2" type="github">
  <diagram id="KyIBKFyuBe1oRPsiNU8R" name="Page-1">
    <mxGraphModel dx="894" dy="593" grid="1" gridSize="10" guides="1" tooltips="1" connect="1" arrows="1" fold="1" page="1" pageScale="1" pageWidth="1169" pageHeight="827" math="0" shadow="0">
      <root>
        <mxCell id="0" />
        <mxCell id="1" parent="0" />
        <mxCell id="ez18GA7f2Q5J8hKGMG-S-3" value="" style="group" vertex="1" connectable="0" parent="1">
          <mxGeometry x="35" y="20" width="110" height="110" as="geometry" />
        </mxCell>
        <object label="" Name="GL-AP-01" IP="192.168.40.4" Ports="4+1" Model="ASUS RT-AX58U" placeholders="1" id="ez18GA7f2Q5J8hKGMG-S-1">
          <mxCell style="fontColor=#0066CC;verticalAlign=top;verticalLabelPosition=bottom;labelPosition=center;align=center;html=1;outlineConnect=0;fillColor=#CCCCCC;strokeColor=#6881B3;gradientColor=none;gradientDirection=north;strokeWidth=2;shape=mxgraph.networks.wireless_hub;whiteSpace=wrap;metaEdit=1;rounded=0;labelBackgroundColor=none;container=0;" vertex="1" parent="ez18GA7f2Q5J8hKGMG-S-3">
            <mxGeometry x="5" width="100" height="85" as="geometry" />
          </mxCell>
        </object>
        <mxCell id="ez18GA7f2Q5J8hKGMG-S-2" value="ASUS RT-AX58U" style="text;html=1;align=center;verticalAlign=middle;resizable=0;points=[];autosize=1;strokeColor=none;fillColor=none;rounded=0;" vertex="1" parent="ez18GA7f2Q5J8hKGMG-S-3">
          <mxGeometry y="90" width="110" height="20" as="geometry" />
        </mxCell>
      </root>
    </mxGraphModel>
  </diagram>
</mxfile>
